# Blender v2.78 (sub 0) OBJ File: ''
# www.blender.org
mtllib pinsa.mtl
o GDL4_OT
v 6.413582 0.178813 3.031586
v 3.274345 0.176250 3.035370
v 6.393868 25.178726 3.068115
v 3.254636 25.176262 3.071869
v 3.250972 25.180702 0.007324
v 3.270682 0.180690 -0.029205
v 6.442256 0.143870 26.966949
v 6.422545 25.143784 27.003479
v -3.577451 25.135946 27.015411
v -7.173310 25.160622 8.104584
v -7.183068 25.172401 0.019806
v -3.557738 0.135933 26.978912
v -7.153596 0.160707 8.068146
v -7.163360 0.172489 -0.016632
v 24.305714 0.197309 -0.054413
v 21.128727 0.190321 3.014038
v 32.641857 12.307732 -71.180878
v 32.641659 12.633965 -71.061584
v 32.641380 12.981337 -71.061005
v 32.639156 12.810509 -73.046234
v 32.639565 12.468318 -72.986450
v -7.360660 12.605219 -72.983215
v -5.358266 12.603882 -71.016022
v 34.679558 1.744116 -31.607330
v 34.620857 5.102208 -31.563171
v 34.689781 7.341205 -31.630676
v 34.681553 17.788982 -31.615417
v 34.663372 22.266495 -31.577362
v 34.589970 22.639599 -31.534485
v 34.622875 23.385799 -31.542419
v 34.692768 0.251675 -31.632721
v 34.631367 12.564943 -31.558197
v 34.629086 25.251537 -31.543732
v 34.606960 0.997787 -31.566071
v 34.606426 1.744042 -31.564972
v 34.678387 3.236727 -31.605225
v 34.671600 11.818817 -31.592621
v 34.608192 21.147053 -31.539642
v 34.685020 5.848705 -31.616455
v 34.692131 4.356182 -31.635040
v 34.687061 10.699406 -31.625702
v 34.670052 13.684407 -31.589844
v 34.680920 18.535240 -31.614319
v 34.683903 14.803860 -31.619751
v -7.265370 0.218323 -31.540039
v -7.277797 0.218371 -31.552216
v -7.267041 11.039243 -31.518860
v -7.253669 13.278110 -31.506866
v -7.275535 21.860100 -31.503082
v -7.272426 0.964707 -31.544739
v -7.236716 12.531831 -31.502045
v -7.314879 25.218334 -31.545868
v -7.302245 2.084127 -31.605194
v -7.303155 3.203561 -31.603485
v -7.254308 14.024366 -31.505768
v 32.640575 2.303183 -78.819519
vn 0.0083 0.6767 -0.7362
vn 0.9998 0.0059 0.0167
vn -0.0156 0.7363 0.6765
vn -0.0157 0.7363 0.6765
vn -0.0156 0.7362 0.6765
vn -0.9840 -0.1314 0.1203
vn 0.0158 -0.7363 -0.6765
vn 0.0157 -0.7363 -0.6765
vn 0.0156 -0.7363 -0.6765
vn 0.0157 -0.7362 -0.6765
vn -0.9998 -0.0059 -0.0167
vn -0.0083 -0.6767 0.7362
usemtl wire_228153184
s 1
f 1//1 2//1 3//1
f 3//1 2//1 4//1
f 5//2 4//2 6//2
f 6//2 4//2 2//2
f 1//2 3//2 7//2
f 7//2 3//2 8//2
f 3//3 4//4 8//3
f 8//3 4//4 9//3
f 9//3 4//4 10//3
f 10//3 4//4 11//3
f 11//3 4//4 5//5
f 9//6 10//6 12//6
f 12//6 10//6 13//6
f 1//7 7//8 2//8
f 2//8 7//8 12//9
f 13//8 2//8 12//9
f 13//8 14//9 2//8
f 2//8 14//9 6//10
f 13//11 10//11 14//11
f 14//11 10//11 11//11
f 12//12 7//12 9//12
f 9//12 7//12 8//12
f 6//1 14//1 5//1
f 5//1 14//1 11//1
l 45 46
o Cube
v 1.000000 -1.000000 -1.000000
v 1.000000 -1.000000 1.000000
v -1.000000 -1.000000 1.000000
v -1.000000 -1.000000 -1.000000
v 1.000000 1.000000 -0.999999
v 0.999999 1.000000 1.000001
v -1.000000 1.000000 1.000000
v -1.000000 1.000000 -1.000000
vn 0.0000 -1.0000 0.0000
vn 0.0000 1.0000 0.0000
vn 1.0000 0.0000 0.0000
vn -0.0000 -0.0000 1.0000
vn -1.0000 -0.0000 -0.0000
vn 0.0000 0.0000 -1.0000
usemtl Material
s off
f 57//13 58//13 59//13 60//13
f 61//14 64//14 63//14 62//14
f 57//15 61//15 62//15 58//15
f 58//16 62//16 63//16 59//16
f 59//17 63//17 64//17 60//17
f 61//18 57//18 60//18 64//18
